<svg width="24" height="24" viewBox="0 0 24 24" fill="none" xmlns="http://www.w3.org/2000/svg">
<path d="M9 2C10.6569 2 12 3.34315 12 5V19C12 20.6569 10.6569 22 9 22H5C3.34315 22 2 20.6569 2 19V5C2 3.34315 3.34315 2 5 2H9ZM7 17C6.44772 17 6 17.4477 6 18C6 18.5523 6.44772 19 7 19C7.55228 19 8 18.5523 8 18C8 17.4477 7.55228 17 7 17Z" fill="#2F2824"/>
<path d="M13.5 15.6597C13.5 15.9965 13.8908 16.1826 14.1522 15.9702L20.0347 11.1918C21.2332 10.0251 21.2461 8.10359 20.0634 6.92086L17.2219 4.07936C16.4882 3.34566 15.4672 3.07049 14.5181 3.25743C13.8451 3.39001 13.5 4.0786 13.5 4.76463V15.6597Z" fill="#2F2824"/>
<path d="M13.8695 18.1324C13.6357 18.3223 13.5 18.6074 13.5 18.9086V21.0001C13.5 21.5524 13.9477 22.0001 14.5 22.0001H19C20.6569 22.0001 22 20.657 22 19.0002V14.2027C22 13.4251 21.597 12.7415 20.9884 12.3496L13.8695 18.1324Z" fill="#2F2824"/>
</svg>
