<svg width="24" height="24" viewBox="0 0 24 24" fill="none" xmlns="http://www.w3.org/2000/svg">
<path d="M17 6C19.6776 6 21.8629 8.10474 21.9932 10.75H17.5C15.7051 10.75 14.25 12.2051 14.25 14C14.25 15.7949 15.7051 17.25 17.5 17.25H21.9932C21.8629 19.8953 19.6776 22 17 22H7C4.23858 22 2 19.7614 2 17V11C2 8.23858 4.23858 6 7 6H17ZM6 16.75C5.58579 16.75 5.25 17.0858 5.25 17.5C5.25 17.9142 5.58579 18.25 6 18.25H12C12.4142 18.25 12.75 17.9142 12.75 17.5C12.75 17.0858 12.4142 16.75 12 16.75H6ZM22 15.75H17.5C16.5335 15.75 15.75 14.9665 15.75 14C15.75 13.0335 16.5335 12.25 17.5 12.25H22V15.75ZM17.5 13.25C17.0858 13.25 16.75 13.5858 16.75 14C16.75 14.4142 17.0858 14.75 17.5 14.75H17.7002C18.1143 14.7499 18.4502 14.4141 18.4502 14C18.4502 13.5859 18.1143 13.2501 17.7002 13.25H17.5Z" fill="#2F2824"/>
<path d="M19.4878 4.99302C18.7667 3.00165 16.6606 1.716 14.4414 2.1729L5.84064 3.94363C4.04426 4.31348 2.58887 5.4977 1.82764 7.06305C3.0151 5.5053 4.89022 4.5 7.00015 4.5H17.0001C17.8813 4.5 18.7215 4.67534 19.4878 4.99302Z" fill="#2F2824"/>
</svg>
