<svg width="24" height="24" viewBox="0 0 24 24" fill="none" xmlns="http://www.w3.org/2000/svg">
<path d="M2.5 12.3359C2.5 10.1268 4.29086 8.33594 6.5 8.33594L11.75 8.33594L11.75 15.3359C11.75 15.7502 12.0858 16.0859 12.5 16.0859C12.9142 16.0859 13.25 15.7502 13.25 15.3359L13.25 8.33594L18.5 8.33594C20.7091 8.33594 22.5 10.1268 22.5 12.3359L22.5 17.3359C22.5 19.5451 20.7091 21.3359 18.5 21.3359L6.5 21.3359C4.29086 21.3359 2.5 19.5451 2.5 17.3359L2.5 12.3359ZM8.96973 5.86621C8.67683 5.57332 8.67683 5.09856 8.96973 4.80566L11.2627 2.51269C11.9461 1.82938 13.0539 1.82938 13.7373 2.51269L16.0303 4.80566C16.3232 5.09856 16.3232 5.57332 16.0303 5.86621C15.7374 6.1591 15.2626 6.1591 14.9697 5.86621L13.25 4.14648L13.25 8.33594L11.75 8.33594L11.75 4.14648L10.0303 5.86621C9.73738 6.1591 9.26262 6.1591 8.96973 5.86621Z" fill="#2F2824"/>
</svg>
